<?xml version="1.0" standalone="no"?>
<!DOCTYPE svg PUBLIC "-//W3C//DTD SVG 20010904//EN"
 "http://www.w3.org/TR/2001/REC-SVG-20010904/DTD/svg10.dtd">
<svg version="1.0" xmlns="http://www.w3.org/2000/svg"
 width="830.000000pt" height="830.000000pt" viewBox="0 0 830.000000 830.000000"
 preserveAspectRatio="xMidYMid meet">

<g transform="translate(0.000000,830.000000) scale(0.100000,-0.100000)"
fill="#000000" stroke="none">
<path d="M6210 7216 c0 -2 8 -10 18 -17 15 -13 16 -12 3 4 -13 16 -21 21 -21
13z"/>
<path d="M6300 7135 c19 -19 36 -35 39 -35 3 0 -10 16 -29 35 -19 19 -36 35
-39 35 -3 0 10 -16 29 -35z"/>
<path d="M6152 7095 c0 -16 2 -22 5 -12 2 9 2 23 0 30 -3 6 -5 -1 -5 -18z"/>
<path d="M1954 7021 c-161 -175 -226 -333 -227 -551 0 -63 5 -144 12 -178 21
-111 99 -337 157 -454 63 -126 210 -378 260 -443 49 -65 54 -79 54 -148 0 -59
-2 -65 -33 -93 -18 -16 -52 -60 -74 -99 -23 -38 -53 -80 -67 -92 -22 -20 -24
-26 -15 -50 6 -16 13 -66 15 -113 2 -47 9 -97 15 -112 10 -24 7 -34 -19 -75
-16 -27 -39 -80 -51 -119 -11 -39 -28 -77 -36 -84 -17 -14 -20 -56 -5 -65 5
-3 19 -38 31 -78 12 -40 32 -91 45 -114 l24 -41 -20 -44 c-13 -29 -20 -65 -20
-111 0 -37 -7 -84 -15 -104 -8 -19 -15 -37 -15 -39 0 -1 18 -24 40 -49 23 -26
51 -68 64 -93 13 -26 33 -56 45 -66 16 -15 20 -27 16 -48 -4 -15 1 -71 10
-123 9 -53 13 -105 10 -116 -5 -15 2 -28 30 -52 151 -129 180 -160 191 -201
14 -51 6 -61 -40 -46 -144 47 -258 -35 -255 -184 1 -34 -4 -64 -13 -78 -9 -13
-84 -96 -167 -185 -83 -90 -150 -163 -147 -163 2 0 67 67 145 149 77 82 143
146 147 142 4 -3 4 -1 1 5 -4 6 1 19 11 27 16 15 21 13 64 -29 33 -32 45 -39
41 -24 -3 11 -13 20 -22 21 -10 0 -11 2 -3 6 6 2 12 12 12 21 0 14 -2 14 -9 3
-17 -27 -5 152 13 186 16 32 61 63 91 63 21 0 19 -6 -16 -55 -40 -55 -48 -120
-25 -196 19 -65 78 -165 95 -161 7 1 10 -2 7 -7 -8 -12 18 -33 29 -23 5 4 5 2
1 -5 -7 -12 25 -39 54 -45 8 -2 21 -9 28 -15 7 -7 36 -13 63 -13 36 0 49 -4
49 -14 0 -8 -9 -18 -21 -21 -12 -4 -18 -12 -15 -20 4 -11 0 -12 -22 -4 -34 13
-23 2 20 -19 30 -15 33 -21 31 -57 -1 -37 -1 -37 6 -10 l8 30 5 -30 c4 -24 5
-21 7 16 1 35 7 51 27 70 46 43 64 91 64 172 0 41 -7 93 -15 116 -12 35 -12
43 -1 47 23 9 84 -23 91 -48 4 -12 34 -59 66 -103 33 -44 66 -90 74 -102 12
-17 26 -23 53 -23 20 0 66 -9 102 -20 36 -11 79 -20 96 -20 22 0 36 -8 53 -30
12 -17 56 -55 97 -86 40 -30 74 -59 74 -64 0 -5 12 -16 26 -23 l27 -14 -22
-15 c-12 -9 -114 -51 -227 -94 -144 -54 -203 -81 -200 -90 3 -7 1 -16 -4 -19
-6 -4 -10 1 -10 10 0 12 -6 15 -22 9 -37 -11 -57 -25 -28 -19 19 4 34 -3 61
-27 19 -18 59 -53 88 -78 29 -25 59 -51 66 -58 17 -15 32 -15 37 0 3 9 6 9 12
0 4 -7 2 -12 -3 -12 -16 0 -13 -14 8 -38 22 -27 31 -28 31 -4 0 14 2 15 10 2
11 -18 9 -20 -32 -30 l-33 -8 40 -2 c22 -2 48 -3 58 -4 10 -1 24 -8 30 -17 11
-14 70 -17 520 -23 l508 -6 -6 32 c-9 46 13 72 59 72 38 0 75 -27 104 -76 13
-22 24 -28 50 -28 26 0 33 -4 30 -17 -2 -11 -14 -19 -31 -21 l-27 -3 0 -125
c0 -117 -1 -124 -20 -124 -19 0 -20 7 -20 125 l0 125 -60 0 c-57 0 -60 -1 -60
-24 0 -16 7 -27 20 -31 31 -10 60 -54 60 -92 0 -26 -8 -42 -30 -63 -77 -72
-210 -30 -210 67 0 42 43 90 89 99 21 5 31 12 31 25 0 17 -9 19 -95 19 l-95 0
0 -125 c0 -118 -1 -125 -20 -125 -19 0 -20 7 -20 125 l0 125 -35 0 -34 0 -3
-123 c-3 -118 -4 -122 -25 -125 -22 -3 -23 0 -23 57 l0 61 -54 0 c-78 0 -89
-18 -41 -71 34 -38 36 -42 20 -58 -15 -15 -20 -12 -66 39 -80 88 -85 98 -66
118 16 15 18 15 32 -3 13 -17 16 -18 25 -5 5 8 10 36 10 63 l0 47 -70 0 -70 0
0 -123 c0 -72 4 -127 10 -133 8 -8 6 -15 -5 -24 -13 -11 -19 -10 -33 5 -16 16
-16 17 5 6 14 -7 24 -8 28 -1 8 12 -20 24 -39 17 -8 -3 -17 1 -20 9 -8 22 -7
26 4 19 6 -4 10 35 10 109 l0 116 -55 0 c-52 0 -55 -1 -55 -25 0 -15 6 -25 14
-25 26 0 56 -50 56 -94 0 -23 5 -47 11 -53 8 -8 7 -13 -2 -18 -8 -5 -10 -4 -5
3 10 17 -3 15 -21 -4 -15 -14 -14 -15 3 -12 12 2 18 -2 16 -10 -1 -8 2 -11 7
-8 5 4 12 -2 15 -12 4 -10 18 -25 31 -32 14 -7 25 -17 25 -22 0 -5 5 -6 10 -3
6 4 7 11 4 17 -4 7 -2 8 4 4 6 -4 8 -14 5 -22 -4 -10 5 -25 23 -41 51 -43 166
-147 195 -176 l29 -29 683 0 c1010 -1 995 -1 1001 20 3 9 6 99 8 199 l3 181
-30 44 c-17 23 -64 67 -104 97 l-72 54 46 18 c57 22 81 42 106 91 23 45 43 32
-202 132 -101 41 -278 114 -394 164 l-210 89 -3 49 -3 50 84 12 c45 7 107 12
136 12 l52 0 81 83 c44 45 86 94 93 108 12 22 23 27 62 31 26 3 81 19 121 37
49 22 85 31 110 29 36 -3 37 -4 40 -48 4 -86 13 -112 51 -153 l38 -42 6 -190
c9 -296 43 -412 152 -520 66 -66 172 -124 264 -145 95 -22 243 -16 351 14 52
14 117 26 143 26 l48 0 -20 -26 c-26 -33 -28 -100 -5 -133 37 -52 153 -78 212
-47 69 36 97 102 87 200 l-7 64 31 17 c35 18 35 18 48 -55 9 -48 23 -57 95
-59 32 -1 42 5 87 56 28 32 51 66 51 76 0 10 -13 32 -29 48 -25 24 -37 29 -80
29 -54 0 -58 4 -40 44 26 56 48 29 -545 646 l-319 332 2 49 c4 91 -33 175 -97
217 -14 9 -51 19 -82 22 l-55 5 3 40 c2 22 12 73 22 113 11 40 20 88 20 106 0
28 6 38 35 56 19 12 55 47 79 78 24 32 59 72 78 89 l34 33 -2 127 c-1 71 -4
140 -8 154 -5 18 -2 29 9 39 10 8 41 64 70 126 29 61 61 116 71 122 18 10 18
12 -4 51 -13 22 -30 73 -38 113 -8 40 -24 86 -34 103 -17 28 -17 32 -2 60 9
17 19 57 24 90 9 73 22 130 39 171 12 30 10 34 -23 75 -20 24 -47 67 -61 94
-14 28 -39 63 -55 78 -30 28 -30 29 -14 68 13 33 13 50 4 103 -7 35 -12 93
-12 129 l0 66 -57 38 c-32 21 -59 46 -61 56 -2 9 19 48 46 85 27 37 57 81 66
97 17 30 17 30 -1 5 -61 -82 -79 -103 -88 -101 -6 2 -9 7 -8 12 6 19 -15 8
-41 -22 l-27 -30 -32 18 c-21 13 -33 29 -38 51 -4 21 -3 29 4 25 6 -4 8 0 4 9
-3 9 -11 34 -18 57 -7 23 -17 41 -22 41 -6 0 -21 10 -33 21 -22 20 -21 17 8
-61 l32 -82 -24 -43 c-20 -37 -22 -46 -11 -59 8 -9 20 -16 28 -16 19 0 85 -34
165 -86 l67 -43 -2 -48 c-1 -26 2 -86 7 -133 l8 -85 -31 -39 c-35 -44 -32 -53
19 -58 27 -2 39 -10 55 -36 11 -18 40 -63 63 -100 41 -62 43 -69 33 -99 -7
-17 -16 -67 -21 -112 -11 -96 -29 -135 -70 -149 -39 -14 -38 -28 3 -45 45 -19
56 -37 67 -105 6 -33 17 -77 26 -97 15 -38 15 -39 -31 -139 -25 -56 -49 -108
-54 -116 -4 -8 -28 -25 -54 -38 -26 -12 -47 -26 -47 -30 0 -5 14 -18 30 -30
l30 -23 0 -119 0 -120 -48 -52 c-26 -29 -57 -69 -69 -89 -25 -39 -59 -59 -103
-59 -33 0 -40 -19 -15 -40 8 -7 15 -25 15 -40 0 -26 -34 -182 -46 -215 -7 -18
-149 -123 -191 -141 -24 -10 -39 -11 -63 -3 -39 14 -57 1 -41 -29 19 -36 12
-67 -28 -123 -21 -30 -45 -68 -54 -85 -14 -26 -33 -38 -119 -73 -112 -45 -142
-49 -175 -26 -34 24 -55 9 -49 -34 6 -34 2 -40 -71 -115 l-76 -79 -111 -14
c-136 -18 -149 -13 -166 55 -14 60 -49 96 -109 112 -23 6 -41 13 -40 15 2 1
53 19 112 39 312 104 559 271 799 540 209 234 337 478 417 801 26 103 39 215
47 384 18 397 -91 770 -332 1131 -101 151 -276 327 -445 446 -260 183 -677
314 -999 314 -149 0 -401 -35 -540 -76 -548 -159 -986 -566 -1201 -1118 -110
-283 -152 -659 -109 -969 42 -295 157 -579 336 -828 70 -96 271 -299 376 -377
98 -73 326 -196 438 -236 93 -33 113 -49 65 -54 -16 -1 -41 -8 -53 -15 -33
-16 -69 -91 -77 -160 -4 -31 -12 -57 -17 -57 -15 0 -168 121 -179 141 -5 10
-9 31 -9 48 0 40 -15 47 -46 22 -15 -12 -35 -21 -45 -21 -29 0 -183 42 -198
54 -8 6 -41 47 -74 91 -57 77 -59 82 -53 129 l5 48 -32 -7 c-56 -13 -78 -8
-136 32 -42 28 -57 45 -59 66 -2 19 -9 27 -22 27 -25 0 -50 34 -84 115 -28 65
-28 68 -12 101 19 42 13 58 -20 50 -33 -9 -48 1 -131 82 l-71 70 -11 83 c-16
117 -14 152 9 182 27 34 25 47 -6 47 -33 0 -68 37 -123 127 l-43 73 12 107
c14 122 21 140 56 153 29 12 34 50 5 50 -35 0 -60 34 -85 121 -14 47 -26 96
-26 110 0 29 57 197 74 218 6 8 26 20 44 28 17 7 32 16 32 20 0 4 -14 21 -31
39 -30 31 -31 35 -35 142 l-4 111 61 90 c64 97 80 111 128 111 42 0 48 17 17
49 -30 31 -33 66 -9 101 13 19 17 40 14 88 -3 60 -1 64 29 90 18 15 59 52 92
82 57 52 62 55 109 53 56 -3 73 15 45 46 -24 26 -20 54 16 113 17 29 39 73 49
98 16 44 19 46 130 94 l112 49 33 -18 c50 -27 64 -16 57 43 -5 48 -4 50 39 93
25 24 59 63 77 87 28 36 38 42 69 42 21 1 64 7 97 15 87 21 112 19 140 -11 29
-31 61 -29 58 4 -4 36 24 80 65 101 21 10 62 37 92 60 30 23 61 39 70 37 8 -3
47 -7 85 -11 123 -12 155 -23 172 -62 18 -43 56 -44 61 -1 4 37 19 47 136 94
l101 41 45 -22 c25 -13 73 -31 105 -40 71 -20 102 -46 111 -92 9 -48 22 -50
59 -10 36 39 49 43 185 51 l85 6 90 -70 c109 -86 118 -96 111 -137 -7 -50 17
-63 54 -28 26 25 34 27 72 21 51 -8 75 -13 108 -21 19 -5 21 -4 10 4 -12 8 -8
13 20 25 l35 15 -32 1 c-18 0 -32 -3 -32 -7 3 -20 -2 -24 -16 -13 -13 11 -13
15 -3 22 9 7 4 8 -14 5 -15 -2 -25 -1 -23 3 7 11 -71 21 -99 14 -20 -5 -27 0
-41 25 -9 18 -20 29 -26 26 -5 -4 -8 -1 -7 6 2 7 -28 34 -67 60 -38 27 -81 62
-95 79 l-25 31 -100 -11 c-55 -5 -126 -15 -158 -21 -56 -12 -59 -11 -86 15
-17 16 -60 36 -109 52 -44 13 -95 36 -111 50 l-31 26 -32 -20 c-18 -11 -71
-32 -118 -47 -47 -15 -98 -37 -114 -48 -26 -18 -30 -19 -55 -5 -14 9 -60 18
-101 22 -41 3 -99 13 -128 21 -53 13 -82 11 -82 -6 0 -4 -43 -38 -95 -74 -52
-37 -100 -75 -105 -85 -9 -16 -18 -18 -58 -14 -29 4 -71 0 -111 -11 -36 -9
-83 -16 -105 -14 -62 3 -64 2 -85 -39 -10 -20 -44 -65 -75 -100 -31 -34 -56
-69 -56 -77 0 -23 -30 -45 -62 -45 -18 0 -66 -18 -109 -40 -43 -22 -89 -40
-103 -40 -31 0 -56 -24 -56 -55 0 -25 -77 -185 -89 -185 -18 0 -171 171 -225
253 -104 157 -152 276 -193 485 -18 96 -24 391 -10 518 7 60 5 74 -8 88 -27
27 -54 18 -101 -33z m36 -263 c0 -307 33 -469 135 -676 66 -133 118 -203 257
-348 43 -45 78 -83 78 -86 0 -6 -172 -143 -197 -157 -14 -7 -23 -22 -25 -44
-2 -17 -7 -32 -13 -31 -16 1 -145 201 -221 345 -84 158 -152 339 -189 508 -26
118 -27 127 -16 240 6 64 20 146 32 182 33 100 122 249 150 249 5 0 9 -80 9
-182z m2552 -759 c11 -6 28 -30 39 -54 11 -24 28 -45 39 -48 11 -3 20 -13 20
-22 0 -13 -6 -16 -23 -11 -22 5 -26 0 -51 -84 -21 -66 -31 -87 -42 -83 -18 7
-18 9 11 100 15 47 21 81 15 88 -5 6 -5 17 0 24 10 17 -8 61 -26 61 -20 0 -25
-15 -10 -36 19 -26 10 -41 -23 -36 -24 3 -29 0 -35 -21 -5 -23 -9 -24 -43 -16
-50 11 -53 11 -53 -4 0 -8 19 -17 47 -23 52 -10 69 -29 60 -66 -12 -47 -91
-55 -138 -14 -17 14 -19 20 -8 27 8 5 20 2 30 -7 19 -17 75 -19 85 -2 10 15
-24 38 -56 38 -32 0 -50 17 -50 47 0 29 33 46 71 38 48 -11 34 14 -16 26 -28
7 -45 17 -45 26 0 12 7 14 28 10 101 -20 102 -20 102 -1 0 19 27 54 42 54 5 0
18 -5 30 -11z m-464 -36 c2 -8 -5 -13 -19 -13 -21 0 -22 -2 -17 -95 5 -88 4
-95 -13 -95 -12 0 -19 7 -19 19 0 18 -3 19 -31 9 -26 -9 -35 -7 -57 9 -36 27
-41 75 -10 97 25 18 68 22 68 6 0 -5 -7 -13 -15 -18 -13 -7 -12 -12 9 -31 30
-29 39 -15 30 45 l-7 46 -63 -4 c-55 -3 -64 -1 -64 14 0 14 12 18 68 21 103 6
135 3 140 -10z m166 9 c59 -8 76 -32 22 -32 -32 0 -36 -3 -36 -25 0 -23 -4
-25 -46 -25 -60 0 -55 -24 7 -28 51 -4 69 -16 69 -47 0 -51 -97 -82 -136 -43
-25 25 -9 39 25 22 33 -17 81 -4 81 21 0 11 -11 15 -41 15 -52 0 -79 15 -79
43 0 32 18 47 57 47 18 0 33 4 33 9 0 11 -35 21 -72 21 -27 0 -35 9 -21 23 8
8 70 8 137 -1z m-404 -26 c0 -8 -15 -16 -37 -20 -63 -11 -73 -17 -73 -36 0
-17 4 -18 29 -9 21 7 36 7 50 -1 37 -19 42 -102 8 -108 -15 -3 -18 0 -12 17
10 33 -3 61 -30 61 -33 0 -36 -9 -21 -68 8 -28 11 -53 8 -56 -12 -13 -32 -5
-32 12 0 28 -9 32 -36 17 -14 -7 -34 -10 -45 -8 -45 12 -50 96 -6 112 33 13
44 -5 17 -27 -27 -22 -22 -52 8 -52 34 0 46 25 36 73 -10 45 -8 44 -86 31 -30
-5 -38 -3 -38 8 0 10 31 22 108 40 127 31 152 33 152 14z m-517 -163 c4 -3 0
-14 -8 -23 -13 -15 -10 -24 30 -89 48 -78 53 -91 31 -91 -7 0 -33 32 -56 70
-23 39 -46 72 -49 75 -4 2 -21 -5 -39 -16 -30 -20 -31 -22 -16 -44 14 -22 13
-24 -17 -48 -18 -14 -29 -29 -25 -36 11 -18 31 -13 54 14 23 27 60 33 80 13
17 -17 15 -48 -3 -48 -8 0 -15 7 -15 15 0 21 -24 19 -44 -4 -28 -31 -17 -54
32 -64 28 -5 42 -13 42 -24 0 -13 -8 -14 -42 -9 -45 7 -78 30 -78 53 0 25 -31
13 -41 -17 -12 -34 -24 -38 -37 -13 -14 24 -44 9 -40 -19 2 -18 13 -25 46 -32
48 -11 57 -36 12 -36 -43 0 -77 19 -91 51 -9 24 -9 33 5 54 9 14 24 26 34 27
9 0 24 1 32 2 9 1 16 13 18 33 2 20 13 40 28 52 38 30 10 36 -33 7 -24 -17
-41 -22 -47 -16 -5 5 -8 11 -5 13 2 2 22 17 45 35 49 38 177 122 185 122 3 0
9 -3 12 -7z m1620 -25 c22 -26 22 -40 -3 -71 l-21 -26 29 -15 c28 -15 30 -14
41 11 10 21 9 28 -1 34 -9 6 -10 11 -2 19 9 9 22 5 53 -14 22 -15 41 -30 41
-34 0 -17 -13 -21 -31 -12 -15 9 -24 0 -60 -61 -40 -67 -62 -89 -76 -76 -3 3
6 26 20 50 l26 44 -24 11 c-17 8 -25 8 -25 1 0 -18 -49 -59 -70 -59 -25 0 -80
51 -80 74 0 25 30 18 40 -9 7 -19 17 -25 39 -25 17 0 31 6 35 16 7 18 -10 54
-25 54 -6 0 -9 6 -6 13 2 6 19 12 38 12 28 0 35 4 37 22 2 16 -4 26 -22 35
-14 6 -26 18 -26 26 0 20 50 7 73 -20z m-719 -47 c41 -43 23 -61 -20 -20 -19
18 -34 37 -34 41 0 17 28 7 54 -21z m986 -148 c49 -43 90 -81 90 -85 0 -14
-21 -19 -35 -8 -14 11 -44 -16 -106 -94 -21 -27 -49 -35 -49 -14 0 7 12 25 28
41 l27 29 -30 24 c-46 37 -65 32 -65 -16 0 -29 -4 -40 -15 -40 -12 0 -15 15
-15 75 0 60 3 75 15 75 8 0 15 -7 15 -15 0 -24 24 -18 54 14 l27 28 -26 17
c-25 16 -35 46 -15 46 5 0 50 -35 100 -77z m-836 7 c309 -61 581 -238 783
-510 61 -82 169 -306 192 -396 67 -268 61 -538 -16 -777 -101 -313 -290 -564
-551 -732 -97 -62 -256 -137 -295 -139 l-32 -1 -7 74 c-9 82 -1 101 39 101 48
0 91 27 127 82 20 29 36 57 36 62 0 6 12 23 27 38 25 27 26 31 16 71 -6 23
-17 56 -23 72 -11 29 -12 29 -26 10 -8 -11 -21 -42 -29 -69 -13 -44 -13 -52 0
-72 22 -35 19 -41 -32 -58 -69 -23 -146 -19 -156 8 -3 7 -8 59 -12 114 -6 82
-5 102 6 106 8 2 33 9 56 15 59 16 100 54 120 113 11 30 29 58 46 70 15 11 27
24 27 30 0 16 -52 128 -59 128 -4 0 -17 -28 -31 -61 -23 -59 -23 -63 -7 -91
23 -41 22 -44 -23 -62 -29 -11 -56 -14 -93 -10 l-53 6 -12 97 c-7 53 -12 117
-12 142 0 46 0 46 38 53 55 8 87 37 121 110 17 34 39 70 51 81 25 23 25 36 -1
115 l-22 63 -28 -63 c-35 -75 -35 -87 -8 -116 l21 -23 -33 -21 c-26 -16 -47
-20 -94 -18 l-60 3 -6 40 c-4 22 -8 94 -10 160 l-4 119 44 8 c54 9 105 54 133
118 11 25 32 57 46 72 l26 28 -24 75 c-13 41 -27 72 -30 68 -14 -17 -50 -117
-50 -139 0 -13 8 -27 18 -33 41 -24 -32 -69 -114 -70 -65 -1 -71 9 -77 132
l-5 107 37 58 c59 92 141 229 141 237 0 4 -50 5 -112 3 l-111 -3 -9 30 c-13
43 -1 184 23 278 11 43 18 81 16 84 -3 2 -31 -27 -63 -66 -33 -38 -63 -68 -69
-67 -5 1 -17 33 -26 70 -17 69 -55 136 -76 136 -22 0 -73 -115 -73 -165 0 -26
-5 -45 -11 -45 -6 0 -36 25 -65 55 -30 30 -59 55 -64 55 -14 0 -12 -27 6 -85
22 -71 25 -272 4 -286 -9 -6 -52 -8 -112 -5 -67 4 -98 3 -98 -5 0 -16 16 -44
97 -167 l75 -114 -9 -116 -8 -117 -90 -3 c-123 -4 -163 20 -118 70 16 18 16
22 -1 66 -10 26 -20 57 -23 70 -9 37 -19 26 -44 -49 l-24 -71 26 -22 c14 -12
34 -43 44 -68 35 -92 85 -127 184 -128 l34 0 -6 -67 c-14 -148 -26 -245 -31
-250 -3 -3 -33 -7 -68 -10 -45 -4 -74 -1 -102 11 -21 9 -41 16 -43 16 -12 0
10 -58 33 -88 32 -41 73 -62 123 -62 22 0 42 -4 46 -10 6 -11 -22 -267 -31
-282 -7 -11 -168 -4 -199 8 -19 8 -19 29 1 59 15 24 15 29 -6 85 -12 33 -26
63 -31 65 -4 3 -18 -27 -31 -66 l-23 -71 22 -18 c12 -10 33 -42 46 -71 37 -83
74 -112 148 -117 l61 -5 -7 -96 c-11 -155 -1 -143 -116 -139 -75 2 -102 7
-115 20 -15 15 -15 18 2 47 17 29 17 33 1 85 -10 31 -22 58 -26 61 -10 5 -51
-84 -51 -111 0 -10 8 -26 17 -36 9 -10 31 -47 47 -81 40 -79 70 -101 149 -107
l62 -5 -3 -80 c-5 -104 -13 -112 -83 -85 -406 159 -714 545 -790 993 -36 207
-17 443 52 650 97 292 284 542 524 702 156 104 372 187 558 214 102 14 329 5
451 -19z m988 -90 c-3 -40 0 -65 8 -75 19 -23 -3 -44 -25 -25 -17 14 -21 11
-111 -73 -34 -32 -43 -36 -53 -24 -9 12 0 25 53 72 36 31 66 66 68 78 2 12 9
21 16 20 8 -2 12 12 12 42 0 37 3 45 18 45 16 0 18 -7 14 -60z m-2387 -23 c-5
-18 6 -31 64 -74 50 -37 69 -57 64 -68 -5 -14 -8 -14 -27 0 -67 48 -65 48 -81
35 -14 -11 -12 -15 15 -31 38 -23 40 -60 5 -94 -32 -33 -105 -33 -105 0 0 9
11 12 38 8 42 -6 66 12 60 44 -3 19 -58 32 -58 14 0 -6 -7 -11 -15 -11 -22 0
-19 11 16 58 25 35 29 45 19 57 -7 8 -16 15 -21 15 -4 0 -34 -34 -65 -74 -32
-41 -61 -73 -66 -70 -14 9 -9 19 28 68 20 26 34 49 32 52 -11 10 -95 -45 -115
-76 -29 -41 -31 -90 -5 -90 11 0 24 12 30 26 14 30 36 22 28 -10 -5 -19 6 -28
69 -66 41 -25 75 -50 75 -57 0 -21 -19 -15 -96 31 -62 39 -74 43 -85 30 -10
-13 -17 -10 -46 21 -39 41 -40 52 -13 106 24 46 84 93 153 117 29 10 57 28 69
45 22 31 41 27 33 -6z m2504 -192 c47 -66 68 -102 61 -109 -7 -7 -16 -5 -26 6
-15 15 -22 12 -86 -34 -46 -34 -74 -48 -86 -43 -14 5 -10 12 22 38 l38 33 -30
32 c-16 18 -35 32 -40 32 -6 0 -13 -18 -17 -40 -6 -36 -22 -50 -37 -35 -3 3 2
36 11 73 12 46 23 68 34 70 12 2 17 -3 17 -17 0 -27 14 -27 51 0 l29 21 -21
30 c-18 24 -19 32 -8 38 7 5 14 8 15 7 1 -1 33 -47 73 -102z m170 -131 c37
-26 61 -90 60 -164 0 -36 -4 -74 -8 -85 -5 -11 -5 -28 0 -37 13 -24 -11 -35
-27 -13 -13 17 -15 17 -60 0 -32 -12 -49 -14 -56 -7 -13 13 -2 46 13 37 8 -5
59 8 77 20 2 2 -15 48 -24 63 -5 9 -93 -40 -97 -55 -3 -10 -11 -37 -17 -61 -9
-35 -14 -41 -25 -32 -9 8 -11 20 -5 43 5 18 14 51 20 74 7 27 15 40 23 37 21
-8 87 24 81 40 -3 7 2 16 11 20 10 4 18 -2 24 -17 5 -12 16 -38 25 -57 l16
-35 -3 72 c-3 80 -26 125 -66 131 -24 4 -30 -25 -9 -46 9 -9 9 -15 0 -24 -9
-9 -15 -8 -25 7 -13 17 -18 16 -89 -23 -81 -45 -98 -50 -98 -29 0 8 36 33 80
57 69 37 78 45 69 61 -5 11 -6 19 -2 20 22 2 45 8 51 13 10 11 37 6 61 -10z
m-1266 -125 c-10 -17 -22 -34 -28 -39 -5 -4 -137 -11 -291 -15 l-281 -8 -27
39 c-14 21 -26 42 -26 46 0 5 151 8 336 8 l335 0 -18 -31z m-1838 -92 c-6 -21
1 -25 79 -50 55 -18 86 -33 86 -43 0 -18 0 -18 -97 13 -45 15 -84 25 -87 22
-2 -2 -6 -12 -8 -23 -2 -14 7 -22 36 -32 21 -8 45 -19 52 -25 21 -17 17 -66
-7 -90 -17 -17 -28 -20 -58 -14 -20 4 -51 7 -68 7 -20 0 -33 4 -33 12 0 7 14
52 30 101 17 49 30 92 30 97 0 5 -16 1 -36 -7 -45 -19 -54 -19 -54 -1 0 8 24
23 58 34 76 27 84 27 77 -1z m1765 -23 c0 -4 -9 -22 -21 -40 l-21 -34 -208 0
-209 0 -19 28 c-10 15 -22 33 -26 40 -6 9 47 12 248 12 141 0 256 -3 256 -6z
m-30 -116 c0 -23 30 -408 45 -578 8 -91 19 -232 25 -315 6 -82 20 -244 30
-360 11 -115 24 -284 30 -374 6 -90 15 -172 21 -182 6 -12 21 -19 39 -19 69 0
94 -87 41 -141 -16 -16 -37 -29 -46 -29 -9 0 -13 -5 -10 -11 4 -6 22 -8 44 -4
49 8 87 -8 111 -47 47 -78 7 -144 -90 -150 -50 -3 -55 -5 -58 -28 -2 -14 -7
-29 -11 -33 -4 -4 -191 -5 -414 -1 l-407 7 0 29 c0 24 -4 28 -29 28 -74 0
-121 40 -121 105 0 27 8 44 29 66 26 25 37 29 85 29 31 0 56 5 56 10 0 6 -7
10 -16 10 -25 0 -74 56 -74 85 0 31 49 85 78 85 33 0 40 20 52 145 6 66 18
190 26 275 8 85 23 234 34 330 25 230 39 372 55 560 23 273 46 474 55 498 9
22 11 22 215 22 157 0 205 -3 205 -12z m1456 -33 c42 -64 -65 -135 -125 -81
-18 17 -20 16 -37 -13 -19 -33 -29 -38 -39 -20 -9 14 63 121 78 116 6 -2 11
-17 12 -33 0 -31 18 -40 61 -30 17 5 24 13 24 31 0 16 -6 25 -15 25 -8 0 -15
-7 -15 -15 0 -8 -7 -15 -15 -15 -8 0 -15 8 -15 18 0 45 60 57 86 17z m23 -117
c20 -56 22 -78 5 -78 -9 0 -18 8 -21 19 -4 18 -7 18 -81 0 -94 -22 -112 -23
-112 -5 0 9 30 21 89 36 51 12 92 28 95 36 8 20 15 17 25 -8z m-3309 -18 c0
-11 1 -20 3 -21 1 0 38 -6 82 -13 75 -13 81 -12 98 5 10 11 29 19 42 19 58 0
76 -72 33 -133 -29 -41 -48 -20 -24 26 22 40 18 72 -9 72 -14 0 -21 -8 -23
-27 -3 -26 -32 -42 -32 -18 0 6 -9 10 -20 10 -14 0 -20 -7 -20 -24 0 -13 -8
-34 -19 -47 -16 -20 -28 -23 -95 -24 l-77 0 6 25 c6 32 25 152 25 163 0 4 7 7
15 7 8 0 15 -9 15 -20z m3334 -152 c11 -121 11 -171 0 -175 -6 -2 -14 6 -17
18 -6 21 -9 22 -96 16 -69 -4 -91 -3 -95 8 -7 20 3 25 55 25 l49 0 -6 48 c-3
26 -7 53 -10 60 -5 17 -34 15 -34 -3 0 -8 5 -15 10 -15 6 0 10 -7 10 -15 0
-22 -27 -18 -44 7 -20 28 -20 33 0 52 18 19 65 21 82 4 7 -7 12 -24 12 -39 0
-61 11 -89 37 -89 l24 0 -7 80 c-6 69 -4 80 9 80 12 0 17 -15 21 -62z m-2986
-910 c22 -40 50 -79 61 -86 27 -16 27 -50 -1 -79 -24 -25 -76 -31 -96 -11 -9
9 -12 7 -12 -10 0 -24 32 -62 53 -62 22 0 72 39 72 57 0 32 22 23 50 -19 73
-111 284 -296 432 -378 25 -14 39 -28 36 -36 -4 -10 -10 -11 -23 -4 -16 9 -24
-1 -61 -70 -24 -44 -46 -80 -50 -80 -23 0 -16 28 21 96 39 72 41 76 23 90 -10
7 -21 14 -25 14 -4 0 -28 -30 -54 -67 -26 -38 -49 -70 -50 -72 -2 -2 -10 -1
-19 3 -14 5 -12 12 14 50 l30 44 -40 26 c-42 28 -69 31 -77 8 -3 -9 3 -13 19
-10 16 2 24 -2 24 -12 0 -9 -11 -16 -27 -18 -55 -6 -61 76 -7 93 14 5 37 -4
74 -29 52 -34 55 -35 65 -17 14 28 15 27 -48 70 -32 21 -64 46 -72 56 -12 15
-20 10 -80 -50 -43 -43 -70 -63 -75 -56 -4 7 -1 18 5 27 10 12 8 19 -14 39
-37 34 -34 71 8 115 34 34 35 36 18 58 l-17 22 -68 -56 c-47 -39 -73 -54 -85
-49 -18 7 -11 15 88 96 44 36 45 37 27 57 -18 20 -19 20 -94 -30 -59 -39 -77
-47 -84 -37 -6 10 -2 18 11 28 20 13 19 14 -6 43 -20 24 -24 40 -23 77 2 49
-22 101 -46 101 -8 0 -19 -16 -25 -35 -14 -43 -45 -50 -37 -7 17 82 67 151 67
91 0 -23 11 -24 50 -4 35 18 35 17 15 54 -13 27 -11 41 6 41 4 0 25 -33 47
-72z m2483 -213 c6 -41 17 -82 24 -91 18 -25 55 -9 62 27 7 37 33 39 33 2 0
-36 -36 -73 -72 -73 -42 0 -64 29 -77 102 -15 85 -14 108 3 108 10 0 18 -22
27 -75z m-112 -101 c12 -15 21 -41 21 -59 0 -28 4 -33 30 -38 54 -11 49 -89
-6 -103 -29 -7 -64 19 -64 48 0 14 -8 18 -40 18 -39 0 -80 26 -80 50 0 15 26
12 40 -6 9 -10 26 -14 49 -12 32 3 36 6 39 35 2 22 -3 38 -18 53 -19 19 -20
40 0 40 5 0 18 -12 29 -26z m-164 -164 c11 -13 16 -30 13 -50 -4 -29 -4 -30
37 -30 44 0 65 -13 65 -42 0 -21 -25 -24 -33 -4 -4 11 -23 15 -66 15 -65 -1
-95 11 -111 42 -32 58 50 119 95 69z m-141 -92 c10 -14 13 -34 10 -62 -5 -38
-3 -42 25 -58 33 -18 43 -58 16 -58 -8 0 -15 6 -15 14 0 7 -14 19 -30 26 -18
7 -33 22 -36 36 -3 13 -10 24 -14 24 -17 0 -40 32 -40 55 0 44 58 60 84 23z
m1134 -48 c47 -29 65 -78 60 -165 -10 -187 -197 -396 -357 -398 -48 -1 -107
25 -97 42 3 4 30 6 60 3 157 -13 335 182 336 367 0 47 -33 112 -70 136 -16 11
-30 23 -30 28 0 15 66 6 98 -13z m-3603 -20 c4 -6 -1 -23 -10 -37 -40 -60 -2
-179 71 -221 37 -21 51 -22 102 -7 20 7 22 4 22 -33 0 -59 -38 -102 -92 -102
-54 0 -99 23 -148 77 -95 102 -125 236 -69 307 17 22 29 26 69 26 27 0 52 -5
55 -10z m3484 -21 c126 -44 39 -330 -123 -405 -71 -33 -120 -32 -157 5 -22 23
-29 39 -29 70 0 48 8 54 47 39 38 -14 73 -5 114 29 64 54 88 156 48 207 -22
28 -19 43 15 56 29 12 48 12 85 -1z m257 -379 c-6 -91 -61 -279 -84 -287 -15
-6 -162 103 -162 120 0 6 25 34 55 60 32 28 72 78 97 120 23 40 49 80 57 90
15 18 16 18 29 0 11 -14 12 -39 8 -103z m124 -22 c60 -65 64 -83 52 -202 -7
-76 -17 -116 -36 -154 -14 -28 -30 -53 -35 -56 -12 -8 -131 81 -131 98 0 8 13
42 30 77 19 42 35 101 46 172 9 59 21 107 26 107 5 0 27 -19 48 -42z m-1644
-28 c47 -18 68 -87 69 -230 l0 -125 -155 0 c-313 0 -1102 15 -1112 22 -16 9
-3 242 15 285 31 74 -3 71 610 64 309 -4 559 -11 573 -16z m1214 -135 c0 -9
-10 -44 -22 -78 -18 -51 -22 -85 -22 -192 -1 -77 4 -147 11 -171 29 -93 122
-185 225 -221 77 -26 310 -24 477 5 139 25 154 22 225 -41 33 -29 37 -39 45
-105 6 -45 6 -86 -1 -108 -19 -70 -118 -98 -176 -49 -45 38 -46 60 -4 107 28
31 34 43 25 56 -31 51 -119 54 -259 12 -54 -17 -133 -33 -174 -36 -179 -14
-379 75 -461 204 -69 109 -114 381 -92 560 7 65 17 70 126 71 63 1 77 -2 77
-14z m624 -47 l46 -51 0 -84 c0 -86 -25 -182 -55 -212 -12 -13 -19 -11 -52 13
-21 14 -51 37 -67 50 l-29 24 36 84 c21 50 38 109 43 148 10 99 13 100 78 28z
m167 -184 c33 -34 34 -38 34 -112 -1 -64 -5 -86 -28 -129 -15 -29 -32 -53 -38
-53 -6 0 -29 14 -51 32 -45 35 -45 38 -4 133 14 33 26 74 26 90 0 37 10 75 19
75 4 0 23 -16 42 -36z m163 -175 c33 -39 36 -111 6 -169 -29 -57 -51 -66 -95
-38 -19 13 -35 28 -35 34 0 6 16 41 35 78 19 37 35 81 35 97 0 38 21 38 54 -2z
m-3703 -66 c13 -16 12 -17 -3 -4 -17 13 -22 21 -14 21 2 0 10 -8 17 -17z
m2043 -173 c183 0 197 -1 194 -17 -2 -13 -15 -19 -46 -21 -35 -3 -42 -7 -42
-25 0 -12 11 -30 25 -42 58 -46 48 -136 -18 -169 -35 -17 -42 -17 -75 -4 -32
12 -41 12 -66 0 -70 -34 -141 38 -117 118 18 62 82 87 145 59 31 -15 56 2 56
37 l0 24 -135 0 -135 0 0 -125 c0 -108 -2 -125 -16 -125 -9 0 -18 9 -21 21 -3
11 -11 18 -19 15 -76 -29 -154 -8 -209 57 -39 45 -40 63 -4 61 30 -2 39 11 39
59 l0 37 -45 0 c-38 0 -45 3 -45 20 0 19 7 20 136 20 l136 0 -41 47 c-31 37
-37 50 -29 61 9 10 23 1 72 -47 l62 -61 198 0z m1784 86 c4 -30 -14 -54 -63
-89 l-30 -22 19 30 c11 17 25 39 33 50 7 11 13 30 13 43 0 33 24 23 28 -12z
m126 -132 c9 -3 16 -14 16 -23 0 -24 -44 -64 -66 -59 -21 4 -40 48 -31 72 6
16 50 22 81 10z"/>
<path d="M3920 5853 c0 -12 9 -27 21 -33 32 -18 36 -2 6 28 -26 26 -27 26 -27
5z"/>
<path d="M5151 5526 l-21 -22 25 -24 c24 -23 25 -23 45 -5 26 23 25 36 -4 57
-22 16 -24 16 -45 -6z"/>
<path d="M3511 4285 c-29 -65 -27 -100 4 -121 24 -16 27 -16 45 1 26 23 25 39
-4 110 l-24 58 -21 -48z"/>
<path d="M5410 5242 c-22 -18 -22 -19 -5 -45 20 -32 23 -32 53 -7 23 19 23 20
5 44 -22 31 -25 31 -53 8z"/>
<path d="M2491 4758 c-10 -27 -7 -32 38 -47 62 -21 87 29 26 55 -46 19 -54 18
-64 -8z"/>
<path d="M4046 4662 c-4 -6 -16 -37 -26 -68 -22 -62 -15 -94 21 -94 36 0 59
19 58 48 0 37 -43 130 -53 114z"/>
<path d="M4175 4492 c-35 -19 -186 -20 -243 -1 -18 6 -36 9 -39 6 -12 -12 20
-78 52 -106 44 -38 66 -44 131 -36 75 9 110 41 144 130 11 30 -1 32 -45 7z"/>
<path d="M4032 4233 c-26 -50 -27 -66 -6 -98 15 -23 15 -25 -1 -32 -10 -3 -34
-2 -54 4 -20 5 -43 12 -51 14 -21 5 -14 -27 13 -68 46 -69 150 -82 209 -26 26
25 71 103 64 110 -2 2 -23 -6 -47 -17 -44 -19 -99 -27 -99 -12 0 4 7 16 15 26
20 26 19 52 -4 101 l-18 40 -21 -42z"/>
<path d="M4022 3835 c-27 -56 -28 -77 -2 -100 17 -15 24 -16 45 -7 16 7 25 20
25 34 0 27 -31 118 -40 118 -3 0 -16 -20 -28 -45z"/>
<path d="M3894 3704 c18 -70 84 -118 164 -119 50 0 56 3 92 42 54 57 69 119
23 95 -10 -6 -62 -14 -116 -18 -81 -6 -100 -4 -121 10 -37 24 -49 21 -42 -10z"/>
<path d="M4025 3444 c-33 -76 -36 -88 -31 -109 3 -12 18 -27 32 -34 24 -11 30
-9 51 11 l23 24 -21 64 c-12 36 -25 69 -30 74 -4 5 -15 -9 -24 -30z"/>
<path d="M4175 3289 c-52 -24 -194 -26 -261 -3 -25 8 -48 13 -51 10 -10 -10
50 -104 80 -127 33 -24 115 -37 161 -25 43 11 100 79 120 144 9 26 4 26 -49 1z"/>
<path d="M3617 2903 c-4 -3 -7 -19 -7 -35 l0 -28 446 0 445 0 -3 33 -3 32
-436 3 c-239 1 -439 -1 -442 -5z"/>
<path d="M3532 2711 c-8 -5 -12 -23 -10 -47 l3 -39 530 0 530 0 3 39 c2 24 -2
42 -10 47 -7 5 -242 9 -523 9 -280 0 -516 -4 -523 -9z"/>
<path d="M2436 4521 c-6 -41 4 -51 55 -51 38 0 59 14 59 41 0 22 -8 27 -63 38
l-45 8 -6 -36z"/>
<path d="M2743 3497 l-22 -12 30 -48 c17 -28 36 -47 47 -47 28 0 56 25 49 44
-8 20 -27 21 -27 1 0 -8 -7 -15 -16 -15 -13 0 -15 7 -11 30 11 55 -6 71 -50
47z"/>
<path d="M2981 3146 c-33 -34 -34 -58 -1 -76 13 -7 25 -1 54 29 l36 37 -29 21
-28 22 -32 -33z"/>
<path d="M5180 3091 c0 -27 19 -36 37 -18 18 18 9 37 -18 37 -12 0 -19 -7 -19
-19z"/>
<path d="M4947 3054 c-10 -10 -9 -42 2 -48 18 -11 42 6 39 28 -3 21 -28 33
-41 20z"/>
<path d="M4815 2960 c-10 -16 16 -43 28 -31 11 11 2 41 -12 41 -5 0 -13 -5
-16 -10z"/>
<path d="M3440 2291 c-5 -11 -10 -29 -10 -40 0 -45 14 -48 292 -55 378 -9 592
-15 760 -22 169 -6 188 -1 188 50 0 19 -7 39 -15 46 -11 9 -148 16 -512 26
-690 18 -690 18 -703 -5z"/>
<path d="M4720 1588 c0 -34 -6 -58 -17 -70 -15 -17 -15 -19 1 -37 22 -25 66
-35 109 -25 l32 7 -35 12 c-57 19 -74 79 -34 120 23 23 64 20 64 -5 0 -13 -7
-20 -20 -20 -27 0 -37 -27 -17 -47 10 -10 24 -13 41 -9 24 6 26 10 26 66 l0
60 -75 0 -75 0 0 -52z"/>
<path d="M5037 1533 c-37 -41 -12 -101 37 -89 19 5 28 17 37 46 14 46 13 48
-27 56 -22 4 -34 0 -47 -13z"/>
<path d="M5170 1518 c-29 -48 -23 -72 20 -76 38 -4 60 16 60 54 0 26 -24 54
-46 54 -8 0 -23 -15 -34 -32z"/>
<path d="M6360 7066 c0 -2 8 -10 18 -17 15 -13 16 -12 3 4 -13 16 -21 21 -21
13z"/>
<path d="M6163 6990 c0 -25 2 -35 4 -22 2 12 2 32 0 45 -2 12 -4 2 -4 -23z"/>
<path d="M6163 6710 c0 -25 2 -35 4 -22 2 12 2 32 0 45 -2 12 -4 2 -4 -23z"/>
<path d="M6513 6620 c0 -47 2 -66 4 -42 2 23 2 61 0 85 -2 23 -4 4 -4 -43z"/>
<path d="M6151 6624 c0 -11 3 -14 6 -6 3 7 2 16 -1 19 -3 4 -6 -2 -5 -13z"/>
<path d="M6142 6550 c0 -14 2 -19 5 -12 2 6 2 18 0 25 -3 6 -5 1 -5 -13z"/>
<path d="M6502 6460 c0 -14 2 -19 5 -12 2 6 2 18 0 25 -3 6 -5 1 -5 -13z"/>
<path d="M4210 6460 c-12 -7 -12 -12 -2 -22 9 -9 15 -9 24 0 16 16 -2 34 -22
22z"/>
<path d="M6491 6404 c0 -11 3 -14 6 -6 3 7 2 16 -1 19 -3 4 -6 -2 -5 -13z"/>
<path d="M3635 6400 c-4 -6 -3 -16 3 -22 6 -6 12 -6 17 2 4 6 3 16 -3 22 -6 6
-12 6 -17 -2z"/>
<path d="M4204 6385 c-19 -14 -18 -14 4 -15 13 0 22 6 22 15 0 19 -1 19 -26 0z"/>
<path d="M4776 6363 c-12 -12 -6 -33 9 -33 8 0 15 6 15 14 0 17 -14 28 -24 19z"/>
<path d="M3647 6334 c-8 -8 1 -24 14 -24 5 0 9 7 9 15 0 15 -12 20 -23 9z"/>
<path d="M4755 6289 c-10 -15 1 -23 20 -15 9 3 13 10 10 16 -8 13 -22 13 -30
-1z"/>
<path d="M3947 6274 c-8 -8 3 -34 14 -34 11 0 12 27 0 34 -4 3 -11 3 -14 0z"/>
<path d="M4051 6266 c-9 -11 -8 -15 5 -20 22 -8 24 -8 24 8 0 21 -16 28 -29
12z"/>
<path d="M6046 6255 c-9 -26 -7 -32 5 -12 6 10 9 21 6 23 -2 3 -7 -2 -11 -11z"/>
<path d="M3855 6250 c-11 -17 5 -32 21 -19 7 6 11 15 8 20 -7 12 -21 11 -29
-1z"/>
<path d="M4151 6246 c-9 -10 -9 -16 -1 -21 16 -10 31 7 21 23 -6 10 -10 10
-20 -2z"/>
<path d="M4280 6246 c0 -21 21 -31 30 -15 5 7 6 17 4 21 -9 14 -34 9 -34 -6z"/>
<path d="M4380 6245 c0 -8 7 -15 15 -15 8 0 15 7 15 15 0 8 -7 15 -15 15 -8 0
-15 -7 -15 -15z"/>
<path d="M4475 6239 c-10 -15 1 -23 20 -15 9 3 13 10 10 16 -8 13 -22 13 -30
-1z"/>
<path d="M3765 6230 c-11 -17 5 -32 21 -19 7 6 11 15 8 20 -7 12 -21 11 -29
-1z"/>
<path d="M4575 6210 c-3 -6 1 -13 10 -16 19 -8 30 0 20 15 -8 14 -22 14 -30 1z"/>
<path d="M3107 6196 c-6 -16 2 -28 14 -20 12 7 11 34 0 34 -5 0 -11 -6 -14
-14z"/>
<path d="M3635 6190 c-7 -12 2 -30 16 -30 12 0 12 27 0 35 -5 3 -12 1 -16 -5z"/>
<path d="M5341 6189 c15 -6 30 -23 38 -46 7 -19 25 -49 40 -66 14 -16 25 -35
23 -41 -2 -6 0 -8 3 -4 4 4 21 -11 37 -33 16 -23 27 -43 25 -46 -10 -9 -48 18
-41 29 4 7 2 8 -5 4 -9 -6 -9 -11 -1 -21 6 -7 15 -27 20 -43 6 -24 5 -32 -7
-36 -19 -8 -13 -50 7 -54 9 -1 25 6 36 17 19 17 24 17 53 5 18 -7 46 -23 62
-34 16 -12 29 -18 29 -13 0 5 -16 17 -35 27 -19 10 -42 27 -51 37 -16 18 -16
19 3 19 11 0 26 -7 33 -15 7 -8 16 -12 21 -10 4 3 12 -2 17 -12 5 -9 16 -18
23 -20 8 -1 27 -6 42 -9 25 -6 36 0 79 42 45 44 152 176 173 214 14 26 -9 -1
-60 -70 -67 -90 -156 -180 -178 -180 -11 0 -45 16 -78 36 -37 23 -66 35 -79
31 -11 -3 -23 -1 -26 4 -8 14 -26 11 -18 -3 4 -7 3 -9 -2 -5 -4 4 -7 22 -6 40
2 23 -7 44 -33 77 -69 89 -97 132 -104 158 -6 21 -14 28 -37 29 l-29 2 26 -10z"/>
<path d="M3535 6180 c-7 -12 2 -30 16 -30 12 0 12 27 0 35 -5 3 -12 1 -16 -5z"/>
<path d="M4664 6169 c-10 -17 13 -36 27 -22 12 12 4 33 -11 33 -5 0 -12 -5
-16 -11z"/>
<path d="M3430 6146 c0 -8 4 -17 9 -20 11 -7 33 18 24 27 -12 12 -33 7 -33 -7z"/>
<path d="M5310 6156 c0 -2 7 -7 16 -10 8 -3 12 -2 9 4 -6 10 -25 14 -25 6z"/>
<path d="M4797 6143 c-4 -3 -7 -12 -7 -20 0 -17 26 -17 33 1 8 21 -11 35 -26
19z"/>
<path d="M3130 6132 c0 -14 11 -21 26 -15 21 8 17 23 -6 23 -11 0 -20 -4 -20
-8z"/>
<path d="M6406 6125 c-9 -26 -7 -32 5 -12 6 10 9 21 6 23 -2 3 -7 -2 -11 -11z"/>
<path d="M4884 6116 c-8 -22 3 -33 18 -18 9 9 9 15 0 24 -9 9 -13 7 -18 -6z"/>
<path d="M3346 6112 c-8 -13 11 -35 23 -28 16 10 14 36 -3 36 -8 0 -17 -4 -20
-8z"/>
<path d="M5280 6095 c0 -10 7 -15 18 -13 21 4 19 22 -2 26 -10 2 -16 -3 -16
-13z"/>
<path d="M4977 6084 c-14 -14 -7 -35 11 -32 9 2 17 10 17 17 0 16 -18 25 -28
15z"/>
<path d="M3264 6059 c-8 -14 18 -31 30 -19 9 9 0 30 -14 30 -5 0 -12 -5 -16
-11z"/>
<path d="M5256 6047 c-14 -10 -16 -16 -7 -22 15 -9 35 8 30 24 -3 8 -10 7 -23
-2z"/>
<path d="M5410 6035 c40 -48 43 -51 32 -30 -6 11 -21 29 -34 40 -22 19 -22 19
2 -10z"/>
<path d="M5066 6023 c-11 -11 -6 -23 9 -23 8 0 15 4 15 9 0 13 -16 22 -24 14z"/>
<path d="M3164 5996 c-8 -22 3 -33 18 -18 9 9 9 15 0 24 -9 9 -13 7 -18 -6z"/>
<path d="M3064 5959 c-8 -14 18 -31 30 -19 9 9 0 30 -14 30 -5 0 -12 -5 -16
-11z"/>
<path d="M5136 5957 c-15 -11 -16 -15 -3 -25 11 -10 17 -9 27 3 18 22 0 39
-24 22z"/>
<path d="M6302 5895 c-17 -36 -30 -65 -27 -65 7 0 67 121 63 126 -2 2 -18 -26
-36 -61z"/>
<path d="M2981 5906 c-9 -10 -9 -16 -1 -21 17 -10 37 12 24 25 -8 8 -15 6 -23
-4z"/>
<path d="M5245 5890 c-8 -14 3 -30 21 -30 8 0 14 9 14 20 0 21 -24 28 -35 10z"/>
<path d="M5859 5873 l-24 -28 28 24 c15 14 27 26 27 28 0 8 -8 1 -31 -24z"/>
<path d="M2660 5850 c0 -5 7 -10 16 -10 8 0 12 5 9 10 -3 6 -10 10 -16 10 -5
0 -9 -4 -9 -10z"/>
<path d="M2914 5846 c-8 -22 3 -33 18 -18 9 9 9 15 0 24 -9 9 -13 7 -18 -6z"/>
<path d="M5332 5829 c2 -6 8 -10 13 -10 5 0 11 4 13 10 2 6 -4 11 -13 11 -9 0
-15 -5 -13 -11z"/>
<path d="M2700 5806 c0 -9 7 -16 16 -16 17 0 14 22 -4 28 -7 2 -12 -3 -12 -12z"/>
<path d="M6206 5725 c-25 -42 -53 -87 -62 -100 -9 -14 -14 -25 -11 -25 3 0 30
39 60 88 71 115 69 112 63 112 -2 0 -25 -34 -50 -75z"/>
<path d="M2855 5779 c-10 -15 3 -25 16 -12 7 7 7 13 1 17 -6 3 -14 1 -17 -5z"/>
<path d="M5400 5775 c0 -8 4 -15 9 -15 5 0 14 7 21 15 10 13 9 15 -9 15 -12 0
-21 -6 -21 -15z"/>
<path d="M5476 5703 c-11 -11 -6 -23 9 -23 8 0 15 4 15 9 0 13 -16 22 -24 14z"/>
<path d="M2760 5676 c0 -8 4 -17 9 -20 10 -7 23 19 14 28 -11 11 -23 6 -23 -8z"/>
<path d="M5657 5674 c-8 -8 1 -24 14 -24 5 0 9 7 9 15 0 15 -12 20 -23 9z"/>
<path d="M2682 5621 c4 -13 18 -16 19 -4 0 4 -5 9 -11 12 -7 2 -11 -2 -8 -8z"/>
<path d="M5520 5604 c0 -9 7 -14 17 -12 25 5 28 28 4 28 -12 0 -21 -6 -21 -16z"/>
<path d="M2612 5541 c4 -13 18 -16 19 -4 0 4 -5 9 -11 12 -7 2 -11 -2 -8 -8z"/>
<path d="M5626 5523 c-11 -11 -6 -23 9 -23 8 0 15 4 15 9 0 13 -16 22 -24 14z"/>
<path d="M2557 5476 c-6 -16 2 -28 14 -20 12 7 11 34 0 34 -5 0 -11 -6 -14
-14z"/>
<path d="M5677 5454 c-9 -10 2 -24 19 -24 8 0 14 7 14 15 0 15 -21 21 -33 9z"/>
<path d="M2318 5408 c9 -9 15 -9 24 0 9 9 7 12 -12 12 -19 0 -21 -3 -12 -12z"/>
<path d="M2515 5400 c-8 -13 4 -32 16 -25 12 8 12 35 0 35 -6 0 -13 -4 -16
-10z"/>
<path d="M2376 5393 c-11 -11 -6 -23 9 -23 8 0 15 4 15 9 0 13 -16 22 -24 14z"/>
<path d="M5736 5372 c-3 -6 -1 -14 5 -17 15 -10 25 3 12 16 -7 7 -13 7 -17 1z"/>
<path d="M2460 5270 c0 -19 3 -21 12 -12 9 9 9 15 0 24 -9 9 -12 7 -12 -12z"/>
<path d="M5781 5281 c-10 -7 -10 -10 -1 -16 6 -4 16 -3 22 3 13 13 -4 23 -21
13z"/>
<path d="M6010 5235 c-10 -12 -10 -15 4 -15 9 0 16 7 16 15 0 8 -2 15 -4 15
-2 0 -9 -7 -16 -15z"/>
<path d="M5960 5205 c-10 -12 -10 -15 4 -15 9 0 16 7 16 15 0 8 -2 15 -4 15
-2 0 -9 -7 -16 -15z"/>
<path d="M2395 5201 c-7 -12 12 -24 25 -16 11 7 4 25 -10 25 -5 0 -11 -4 -15
-9z"/>
<path d="M5807 5184 c-8 -8 1 -24 14 -24 5 0 9 7 9 15 0 15 -12 20 -23 9z"/>
<path d="M2345 5111 c-7 -12 12 -24 25 -16 11 7 4 25 -10 25 -5 0 -11 -4 -15
-9z"/>
<path d="M5875 5060 c-3 -5 3 -10 15 -10 12 0 18 5 15 10 -3 6 -10 10 -15 10
-5 0 -12 -4 -15 -10z"/>
<path d="M2316 5032 c-3 -6 -1 -14 5 -17 15 -10 25 3 12 16 -7 7 -13 7 -17 1z"/>
<path d="M5915 4980 c-8 -13 9 -20 24 -11 10 6 9 10 -3 14 -8 3 -18 2 -21 -3z"/>
<path d="M2295 4941 c-6 -11 9 -23 19 -14 9 9 7 23 -3 23 -6 0 -12 -4 -16 -9z"/>
<path d="M2110 4910 c0 -5 5 -10 11 -10 5 0 7 5 4 10 -3 6 -8 10 -11 10 -2 0
-4 -4 -4 -10z"/>
<path d="M5957 4903 c-4 -3 -7 -11 -7 -17 0 -6 5 -5 12 2 6 6 9 14 7 17 -3 3
-9 2 -12 -2z"/>
<path d="M2160 4890 c0 -5 4 -10 9 -10 6 0 13 5 16 10 3 6 -1 10 -9 10 -9 0
-16 -4 -16 -10z"/>
<path d="M2270 4810 c0 -5 5 -10 10 -10 6 0 10 5 10 10 0 6 -4 10 -10 10 -5 0
-10 -4 -10 -10z"/>
<path d="M5970 4785 c0 -9 6 -12 15 -9 8 4 12 10 9 15 -8 14 -24 10 -24 -6z"/>
<path d="M2230 4725 c0 -9 5 -15 11 -13 6 2 11 8 11 13 0 5 -5 11 -11 13 -6 2
-11 -4 -11 -13z"/>
<path d="M5976 4691 c-4 -7 -5 -15 -2 -18 9 -9 19 4 14 18 -4 11 -6 11 -12 0z"/>
<path d="M6110 4676 c0 -9 5 -16 10 -16 6 0 10 4 10 9 0 6 -4 13 -10 16 -5 3
-10 -1 -10 -9z"/>
<path d="M6170 4680 c0 -5 4 -10 9 -10 6 0 13 5 16 10 3 6 -1 10 -9 10 -9 0
-16 -4 -16 -10z"/>
<path d="M2205 4629 c-10 -15 3 -25 16 -12 7 7 7 13 1 17 -6 3 -14 1 -17 -5z"/>
<path d="M6000 4550 c0 -5 5 -10 10 -10 6 0 10 5 10 10 0 6 -4 10 -10 10 -5 0
-10 -4 -10 -10z"/>
<path d="M2196 4541 c-4 -5 -2 -12 3 -15 5 -4 12 -2 15 3 4 5 2 12 -3 15 -5 4
-12 2 -15 -3z"/>
<path d="M6025 4460 c4 -6 11 -8 16 -5 14 9 11 15 -7 15 -8 0 -12 -5 -9 -10z"/>
<path d="M2195 4450 c-3 -5 1 -10 9 -10 9 0 16 5 16 10 0 6 -4 10 -9 10 -6 0
-13 -4 -16 -10z"/>
<path d="M6026 4381 c-4 -5 -2 -12 3 -15 5 -4 12 -2 15 3 4 5 2 12 -3 15 -5 4
-12 2 -15 -3z"/>
<path d="M2020 4370 c0 -5 5 -10 10 -10 6 0 10 5 10 10 0 6 -4 10 -10 10 -5 0
-10 -4 -10 -10z"/>
<path d="M2075 4370 c-3 -5 1 -10 9 -10 9 0 16 5 16 10 0 6 -4 10 -9 10 -6 0
-13 -4 -16 -10z"/>
<path d="M2200 4320 c0 -5 7 -10 16 -10 8 0 12 5 9 10 -3 6 -10 10 -16 10 -5
0 -9 -4 -9 -10z"/>
<path d="M6020 4270 c0 -5 5 -10 10 -10 6 0 10 5 10 10 0 6 -4 10 -10 10 -5 0
-10 -4 -10 -10z"/>
<path d="M2185 4229 c-10 -15 3 -25 16 -12 7 7 7 13 1 17 -6 3 -14 1 -17 -5z"/>
<path d="M5990 4170 c0 -5 7 -10 15 -10 8 0 15 5 15 10 0 6 -7 10 -15 10 -8 0
-15 -4 -15 -10z"/>
<path d="M2186 4131 c-4 -5 -2 -12 3 -15 5 -4 12 -2 15 3 4 5 2 12 -3 15 -5 4
-12 2 -15 -3z"/>
<path d="M6126 4121 c-3 -5 1 -11 9 -15 8 -3 15 -1 15 4 0 13 -18 22 -24 11z"/>
<path d="M6185 4110 c3 -5 10 -10 16 -10 5 0 9 5 9 10 0 6 -7 10 -16 10 -8 0
-12 -4 -9 -10z"/>
<path d="M2192 4039 c2 -6 8 -10 13 -10 5 0 11 4 13 10 2 6 -4 11 -13 11 -9 0
-15 -5 -13 -11z"/>
<path d="M5998 4033 c7 -3 16 -2 19 1 4 3 -2 6 -13 5 -11 0 -14 -3 -6 -6z"/>
<path d="M2216 3962 c-3 -6 -1 -14 5 -17 15 -10 25 3 12 16 -7 7 -13 7 -17 1z"/>
<path d="M5978 3938 c9 -9 15 -9 24 0 9 9 7 12 -12 12 -19 0 -21 -3 -12 -12z"/>
<path d="M2115 3850 c-3 -5 3 -10 15 -10 12 0 18 5 15 10 -3 6 -10 10 -15 10
-5 0 -12 -4 -15 -10z"/>
<path d="M5970 3849 c0 -5 5 -7 10 -4 6 3 10 8 10 11 0 2 -4 4 -10 4 -5 0 -10
-5 -10 -11z"/>
<path d="M2065 3839 c-10 -15 3 -25 16 -12 7 7 7 13 1 17 -6 3 -14 1 -17 -5z"/>
<path d="M2250 3830 c0 -5 7 -10 15 -10 8 0 15 5 15 10 0 6 -7 10 -15 10 -8 0
-15 -4 -15 -10z"/>
<path d="M5936 3761 c-4 -7 -5 -15 -2 -18 9 -9 19 4 14 18 -4 11 -6 11 -12 0z"/>
<path d="M2256 3753 c-11 -11 -6 -23 9 -23 8 0 15 4 15 9 0 13 -16 22 -24 14z"/>
<path d="M5887 3674 c-11 -11 3 -24 18 -18 8 4 12 10 9 15 -6 11 -18 12 -27 3z"/>
<path d="M2280 3640 c0 -5 4 -10 9 -10 6 0 13 5 16 10 3 6 -1 10 -9 10 -9 0
-16 -4 -16 -10z"/>
<path d="M5990 3580 c0 -5 4 -10 9 -10 6 0 13 5 16 10 3 6 -1 10 -9 10 -9 0
-16 -4 -16 -10z"/>
<path d="M2310 3560 c0 -5 5 -10 10 -10 6 0 10 5 10 10 0 6 -4 10 -10 10 -5 0
-10 -4 -10 -10z"/>
<path d="M6050 3560 c0 -5 4 -10 9 -10 6 0 13 5 16 10 3 6 -1 10 -9 10 -9 0
-16 -4 -16 -10z"/>
<path d="M5842 3539 c2 -6 8 -10 13 -10 5 0 11 4 13 10 2 6 -4 11 -13 11 -9 0
-15 -5 -13 -11z"/>
<path d="M2355 3500 c-4 -6 -3 -16 3 -22 13 -13 23 4 13 21 -7 10 -10 10 -16
1z"/>
<path d="M5815 3450 c3 -5 10 -10 16 -10 5 0 9 5 9 10 0 6 -7 10 -16 10 -8 0
-12 -4 -9 -10z"/>
<path d="M2415 3390 c-4 -6 -3 -16 3 -22 6 -6 12 -6 17 2 4 6 3 16 -3 22 -6 6
-12 6 -17 -2z"/>
<path d="M5780 3370 c0 -5 4 -10 9 -10 6 0 13 5 16 10 3 6 -1 10 -9 10 -9 0
-16 -4 -16 -10z"/>
<path d="M2282 3359 c2 -6 8 -10 13 -10 5 0 11 4 13 10 2 6 -4 11 -13 11 -9 0
-15 -5 -13 -11z"/>
<path d="M2240 3330 c0 -5 4 -10 9 -10 6 0 13 5 16 10 3 6 -1 10 -9 10 -9 0
-16 -4 -16 -10z"/>
<path d="M2440 3290 c0 -5 7 -10 15 -10 8 0 15 5 15 10 0 6 -7 10 -15 10 -8 0
-15 -4 -15 -10z"/>
<path d="M5726 3291 c-4 -5 -2 -12 3 -15 5 -4 12 -2 15 3 4 5 2 12 -3 15 -5 4
-12 2 -15 -3z"/>
<path d="M5656 3221 c-4 -5 -2 -12 3 -15 5 -4 12 -2 15 3 4 5 2 12 -3 15 -5 4
-12 2 -15 -3z"/>
<path d="M2485 3210 c-8 -13 15 -24 27 -12 6 6 4 11 -6 15 -8 3 -18 2 -21 -3z"/>
<path d="M2540 3135 c0 -9 5 -15 11 -13 6 2 11 8 11 13 0 5 -5 11 -11 13 -6 2
-11 -4 -11 -13z"/>
<path d="M5580 3100 c0 -5 7 -10 15 -10 8 0 15 5 15 10 0 6 -7 10 -15 10 -8 0
-15 -4 -15 -10z"/>
<path d="M5730 3100 c0 -5 4 -10 9 -10 6 0 13 5 16 10 3 6 -1 10 -9 10 -9 0
-16 -4 -16 -10z"/>
<path d="M2597 3083 c-3 -5 -2 -15 2 -22 7 -10 10 -10 16 -1 4 6 3 16 -3 22
-5 5 -12 6 -15 1z"/>
<path d="M5790 3070 c0 -5 5 -10 10 -10 6 0 10 5 10 10 0 6 -4 10 -10 10 -5 0
-10 -4 -10 -10z"/>
<path d="M5536 3031 c-4 -5 -2 -12 3 -15 5 -4 12 -2 15 3 4 5 2 12 -3 15 -5 4
-12 2 -15 -3z"/>
<path d="M2685 2991 c-7 -12 12 -24 25 -16 11 7 4 25 -10 25 -5 0 -11 -4 -15
-9z"/>
<path d="M5475 2961 c-6 -11 9 -23 19 -14 9 9 7 23 -3 23 -6 0 -12 -4 -16 -9z"/>
<path d="M2565 2939 c-10 -15 3 -25 16 -12 7 7 7 13 1 17 -6 3 -14 1 -17 -5z"/>
<path d="M2726 2911 c-3 -5 1 -11 9 -15 15 -6 29 7 18 18 -9 9 -21 8 -27 -3z"/>
<path d="M5400 2890 c0 -5 7 -10 15 -10 8 0 15 5 15 10 0 6 -7 10 -15 10 -8 0
-15 -4 -15 -10z"/>
<path d="M2805 2839 c-10 -15 3 -25 16 -12 7 7 7 13 1 17 -6 3 -14 1 -17 -5z"/>
<path d="M5315 2840 c-3 -5 1 -10 9 -10 9 0 16 5 16 10 0 6 -4 10 -9 10 -6 0
-13 -4 -16 -10z"/>
<path d="M2865 2790 c-8 -13 15 -24 27 -12 6 6 4 11 -6 15 -8 3 -18 2 -21 -3z"/>
<path d="M5222 2751 c4 -13 18 -16 19 -4 0 4 -5 9 -11 12 -7 2 -11 -2 -8 -8z"/>
<path d="M2940 2740 c0 -5 5 -10 10 -10 6 0 10 5 10 10 0 6 -4 10 -10 10 -5 0
-10 -4 -10 -10z"/>
<path d="M5366 2722 c-3 -6 -1 -14 5 -17 15 -10 25 3 12 16 -7 7 -13 7 -17 1z"/>
<path d="M5155 2690 c3 -5 10 -10 16 -10 5 0 9 5 9 10 0 6 -7 10 -16 10 -8 0
-12 -4 -9 -10z"/>
<path d="M2063 2675 c0 -8 4 -12 9 -9 5 3 6 10 3 15 -9 13 -12 11 -12 -6z"/>
<path d="M3045 2681 c-7 -12 12 -24 25 -16 11 7 4 25 -10 25 -5 0 -11 -4 -15
-9z"/>
<path d="M5410 2670 c0 -5 5 -10 10 -10 6 0 10 5 10 10 0 6 -4 10 -10 10 -5 0
-10 -4 -10 -10z"/>
<path d="M5080 2640 c0 -5 7 -10 15 -10 8 0 15 5 15 10 0 6 -7 10 -15 10 -8 0
-15 -4 -15 -10z"/>
<path d="M2125 2621 c-3 -5 -2 -12 3 -15 5 -3 9 1 9 9 0 17 -3 19 -12 6z"/>
<path d="M3116 2621 c-4 -5 -2 -12 3 -15 5 -4 12 -2 15 3 4 5 2 12 -3 15 -5 4
-12 2 -15 -3z"/>
<path d="M2945 2599 c-10 -15 3 -25 16 -12 7 7 7 13 1 17 -6 3 -14 1 -17 -5z"/>
<path d="M4996 2603 c-11 -11 -6 -23 9 -23 8 0 15 4 15 9 0 13 -16 22 -24 14z"/>
<path d="M2051 2564 c0 -11 3 -14 6 -6 3 7 2 16 -1 19 -3 4 -6 -2 -5 -13z"/>
<path d="M4902 2571 c4 -13 18 -16 19 -4 0 4 -5 9 -11 12 -7 2 -11 -2 -8 -8z"/>
<path d="M1939 2543 l-24 -28 28 24 c25 23 32 31 24 31 -2 0 -14 -12 -28 -27z"/>
<path d="M2916 2563 c-11 -11 -6 -23 9 -23 8 0 15 4 15 9 0 13 -16 22 -24 14z"/>
<path d="M3190 2560 c0 -5 7 -10 15 -10 8 0 15 5 15 10 0 6 -7 10 -15 10 -8 0
-15 -4 -15 -10z"/>
<path d="M2233 2535 c0 -8 3 -13 6 -10 2 3 21 -9 40 -27 33 -31 33 -30 -4 10
-21 23 -40 42 -40 42 -1 0 -2 -7 -2 -15z"/>
<path d="M3270 2530 c0 -5 7 -10 16 -10 8 0 12 5 9 10 -3 6 -10 10 -16 10 -5
0 -9 -4 -9 -10z"/>
<path d="M3355 2509 c-4 -6 -3 -15 3 -21 6 -6 11 -4 15 6 7 18 -9 31 -18 15z"/>
<path d="M4787 2514 c-8 -8 1 -24 14 -24 5 0 9 7 9 15 0 15 -12 20 -23 9z"/>
<path d="M2011 2494 c0 -11 3 -14 6 -6 3 7 2 16 -1 19 -3 4 -6 -2 -5 -13z"/>
<path d="M2205 2490 c10 -11 20 -20 23 -20 3 0 -3 9 -13 20 -10 11 -20 20 -23
20 -3 0 3 -9 13 -20z"/>
<path d="M4705 2470 c-3 -5 1 -10 9 -10 9 0 16 5 16 10 0 6 -4 10 -9 10 -6 0
-13 -4 -16 -10z"/>
<path d="M4915 2441 c-6 -11 9 -23 19 -14 9 9 7 23 -3 23 -6 0 -12 -4 -16 -9z"/>
<path d="M2398 2393 c7 -3 16 -2 19 1 4 3 -2 6 -13 5 -11 0 -14 -3 -6 -6z"/>
<path d="M4945 2389 c-10 -15 3 -25 16 -12 7 7 7 13 1 17 -6 3 -14 1 -17 -5z"/>
<path d="M1670 2323 l-55 -58 58 55 c31 30 57 56 57 57 0 8 -10 -1 -60 -54z"/>
<path d="M2229 2353 c-13 -16 -12 -17 4 -4 9 7 17 15 17 17 0 8 -8 3 -21 -13z"/>
<path d="M2272 2328 c-18 -13 -148 -115 -290 -228 -142 -113 -273 -217 -292
-231 -19 -15 -32 -30 -28 -34 13 -13 302 -64 365 -65 73 0 141 21 201 62 66
45 89 89 108 202 14 84 15 113 5 195 -14 116 -24 131 -69 99z"/>
<path d="M1530 2173 l-55 -58 58 55 c53 50 62 60 54 60 -1 0 -27 -26 -57 -57z"/>
<path d="M2522 2175 c0 -16 2 -22 5 -12 2 9 2 23 0 30 -3 6 -5 -1 -5 -18z"/>
<path d="M2543 2110 c0 -30 2 -43 4 -27 2 15 2 39 0 55 -2 15 -4 2 -4 -28z"/>
<path d="M2511 2084 c0 -11 3 -14 6 -6 3 7 2 16 -1 19 -3 4 -6 -2 -5 -13z"/>
<path d="M1360 1993 l-55 -58 58 55 c53 50 62 60 54 60 -1 0 -27 -26 -57 -57z"/>
<path d="M2532 2025 c0 -16 2 -22 5 -12 2 9 2 23 0 30 -3 6 -5 -1 -5 -18z"/>
<path d="M2522 1970 c0 -14 2 -19 5 -12 2 6 2 18 0 25 -3 6 -5 1 -5 -13z"/>
<path d="M2810 1970 c-8 -5 -10 -10 -5 -10 6 0 17 5 25 10 8 5 11 10 5 10 -5
0 -17 -5 -25 -10z"/>
<path d="M2745 1945 c-25 -12 -26 -14 -5 -9 28 7 60 23 45 23 -5 0 -23 -6 -40
-14z"/>
<path d="M2511 1924 c0 -11 3 -14 6 -6 3 7 2 16 -1 19 -3 4 -6 -2 -5 -13z"/>
<path d="M2665 1915 c-25 -12 -26 -14 -5 -9 28 7 60 23 45 23 -5 0 -23 -6 -40
-14z"/>
<path d="M2501 1884 c0 -11 3 -14 6 -6 3 7 2 16 -1 19 -3 4 -6 -2 -5 -13z"/>
<path d="M2605 1890 c-3 -6 1 -7 9 -4 18 7 21 14 7 14 -6 0 -13 -4 -16 -10z"/>
<path d="M1302 1840 c0 -14 2 -19 5 -12 2 6 2 18 0 25 -3 6 -5 1 -5 -13z"/>
<path d="M2600 1852 c0 -20 68 -89 100 -102 31 -13 35 -19 23 -36 -5 -5 -1 -3
7 4 13 12 13 15 -4 25 -63 39 -83 56 -103 86 -13 19 -23 29 -23 23z"/>
<path d="M1233 1823 c9 -2 23 -2 30 0 6 3 -1 5 -18 5 -16 0 -22 -2 -12 -5z"/>
<path d="M2463 1789 c-12 -21 -17 -37 -12 -33 11 6 42 64 37 69 -2 2 -13 -14
-25 -36z"/>
<path d="M1189 1803 c-13 -16 -12 -17 4 -4 9 7 17 15 17 17 0 8 -8 3 -21 -13z"/>
<path d="M1172 1750 c0 -14 2 -19 5 -12 2 6 2 18 0 25 -3 6 -5 1 -5 -13z"/>
<path d="M1370 1735 c0 -8 2 -15 4 -15 2 0 6 7 10 15 3 8 1 15 -4 15 -6 0 -10
-7 -10 -15z"/>
<path d="M3010 1743 c-66 -6 -80 -12 -79 -36 0 -21 1 -21 8 -2 6 16 20 21 67
25 32 3 55 7 49 10 -5 3 -26 4 -45 3z"/>
<path d="M4305 1741 c-3 -5 0 -21 6 -35 9 -19 20 -26 39 -26 40 0 43 11 13 42
-27 29 -47 35 -58 19z"/>
<path d="M2399 1703 l-34 -38 38 34 c34 33 42 41 34 41 -2 0 -19 -17 -38 -37z"/>
<path d="M3212 1709 c2 -7 10 -15 17 -17 8 -3 12 1 9 9 -2 7 -10 15 -17 17 -8
3 -12 -1 -9 -9z"/>
<path d="M1362 1680 c0 -14 2 -19 5 -12 2 6 2 18 0 25 -3 6 -5 1 -5 -13z"/>
<path d="M1210 1676 c0 -2 8 -10 18 -17 15 -13 16 -12 3 4 -13 16 -21 21 -21
13z"/>
<path d="M1431 1664 c0 -11 3 -14 6 -6 3 7 2 16 -1 19 -3 4 -6 -2 -5 -13z"/>
<path d="M2604 1628 l-29 -33 33 29 c30 28 37 36 29 36 -2 0 -16 -15 -33 -32z"/>
<path d="M1340 1640 c-9 -6 -10 -10 -3 -10 6 0 15 5 18 10 8 12 4 12 -15 0z"/>
<path d="M1660 1641 c0 -5 8 -15 18 -22 15 -13 16 -12 4 3 -12 15 -9 17 25 21
l38 4 -42 1 c-24 1 -43 -2 -43 -7z"/>
<path d="M3020 1620 c0 -21 -18 -26 -38 -10 -7 5 -6 3 2 -6 18 -21 46 -11 46
16 0 11 -2 20 -5 20 -3 0 -5 -9 -5 -20z"/>
<path d="M3095 1619 c-10 -30 -2 -32 12 -3 6 13 7 24 3 24 -5 0 -12 -9 -15
-21z"/>
<path d="M3162 1620 c0 -14 2 -19 5 -12 2 6 2 18 0 25 -3 6 -5 1 -5 -13z"/>
<path d="M3190 1615 c0 -14 2 -25 4 -25 2 0 6 11 8 25 3 14 1 25 -3 25 -5 0
-9 -11 -9 -25z"/>
<path d="M3228 1623 c-2 -10 -1 -31 3 -48 6 -26 7 -23 8 18 1 48 -3 61 -11 30z"/>
<path d="M3310 1631 c0 -5 -3 -18 -7 -28 -6 -17 -5 -17 15 1 12 11 25 16 29
13 3 -4 1 -7 -5 -7 -22 0 -12 -16 10 -17 13 -1 24 -7 26 -12 7 -20 52 11 52
36 0 22 -4 23 -60 23 -33 0 -60 -4 -60 -9z"/>
<path d="M3810 1595 l0 -45 45 0 45 0 0 45 0 45 -45 0 -45 0 0 -45z"/>
<path d="M1278 1623 c7 -3 16 -2 19 1 4 3 -2 6 -13 5 -11 0 -14 -3 -6 -6z"/>
<path d="M2565 1579 c-4 -6 -5 -12 -2 -15 2 -3 7 2 10 11 7 17 1 20 -8 4z"/>
<path d="M1702 1550 c0 -19 2 -27 5 -17 2 9 2 25 0 35 -3 9 -5 1 -5 -18z"/>
<path d="M1958 1573 c7 -3 16 -2 19 1 4 3 -2 6 -13 5 -11 0 -14 -3 -6 -6z"/>
<path d="M2128 1573 c6 -2 18 -2 25 0 6 3 1 5 -13 5 -14 0 -19 -2 -12 -5z"/>
<path d="M3172 1565 c-11 -12 -10 -15 3 -15 8 0 15 7 15 15 0 18 -2 18 -18 0z"/>
<path d="M2023 1563 c9 -2 23 -2 30 0 6 3 -1 5 -18 5 -16 0 -22 -2 -12 -5z"/>
<path d="M3087 1550 c3 -11 9 -22 13 -25 5 -3 6 4 3 15 -3 11 -9 22 -13 25 -5
3 -6 -4 -3 -15z"/>
<path d="M4195 1535 c-30 -29 -31 -45 -6 -76 14 -18 29 -24 60 -24 48 0 74 21
74 61 0 60 -83 85 -128 39z"/>
<path d="M2554 1365 c0 -104 2 -146 3 -92 2 54 2 139 0 190 -1 51 -3 7 -3 -98z"/>
<path d="M3320 1528 c1 -13 7 -34 16 -48 l15 -25 -8 25 c-4 14 -7 35 -8 48 0
12 -3 22 -7 22 -5 0 -8 -10 -8 -22z"/>
<path d="M3431 1532 c-11 -21 5 -56 21 -46 7 4 8 2 4 -5 -4 -6 0 -14 9 -18 36
-13 41 48 7 75 -21 16 -30 15 -41 -6z"/>
<path d="M2971 1511 c6 -17 16 -35 24 -41 7 -6 4 7 -7 30 -24 47 -31 52 -17
11z"/>
<path d="M3284 1501 c3 -24 10 -49 17 -55 9 -8 10 -8 5 1 -4 7 -11 32 -16 55
l-9 43 3 -44z"/>
<path d="M1470 1475 c13 -14 26 -25 28 -25 3 0 -5 11 -18 25 -13 14 -26 25
-28 25 -3 0 5 -11 18 -25z"/>
<path d="M3168 1493 c10 -4 10 -8 0 -21 -11 -13 -11 -14 2 -10 23 7 25 38 3
37 -11 0 -13 -3 -5 -6z"/>
<path d="M3047 1469 c7 -7 15 -10 18 -7 3 3 -2 9 -12 12 -14 6 -15 5 -6 -5z"/>
<path d="M3400 1456 c0 -2 7 -7 16 -10 8 -3 12 -2 9 4 -6 10 -25 14 -25 6z"/>
<path d="M3231 1413 c-1 -27 -26 -30 -40 -5 -8 14 -12 15 -23 3 -9 -10 -10
-12 0 -7 7 4 15 1 18 -8 3 -9 15 -16 25 -16 21 0 34 21 26 42 -3 7 -6 3 -6 -9z"/>
<path d="M3058 1398 c5 -5 16 -8 23 -6 8 3 3 7 -10 11 -17 4 -21 3 -13 -5z"/>
<path d="M3703 1083 c26 -2 67 -2 90 0 23 2 2 3 -48 3 -49 0 -68 -1 -42 -3z"/>
</g>
</svg>
